M48
; DRILL file {KiCad (6.0.0)} date Sun May 15 17:50:47 2022
; FORMAT={-:-/ absolute / inch / decimal}
; #@! TF.CreationDate,2022-05-15T17:50:47-05:00
; #@! TF.GenerationSoftware,Kicad,Pcbnew,(6.0.0)
; #@! TF.FileFunction,Plated,1,2,PTH
FMAT,2
INCH
; #@! TA.AperFunction,Plated,PTH,ViaDrill
T1C0.0157
; #@! TA.AperFunction,Plated,PTH,ComponentDrill
T2C0.0394
%
G90
G05
T1
X5.8197Y-3.2508
X6.0276Y-2.9882
X6.1417Y-2.8346
X6.1811Y-2.8346
X6.2185Y-3.4291
X6.2205Y-2.8346
X6.2598Y-2.8346
X6.3642Y-3.0622
X6.4508Y-3.1949
X6.4941Y-3.3236
X6.4941Y-3.4272
X6.5787Y-3.4272
T2
X5.86Y-3.53
X5.86Y-3.635
X5.96Y-3.53
X5.96Y-3.635
X6.06Y-3.53
X6.06Y-3.635
X6.16Y-3.53
X6.16Y-3.635
X6.265Y-3.53
X6.365Y-3.53
X6.465Y-3.53
X6.565Y-3.53
T0
M30
